<?xml version="1.0" encoding="UTF-8"?>
<svg xmlns="http://www.w3.org/2000/svg" xmlns:xlink="http://www.w3.org/1999/xlink" width="1920" height="1080" viewBox="0 0 1920 1080">
<defs>
<g>
<g id="glyph-0-0">
<path d="M 0.53125 0 L 0.53125 -0.234375 L 0.90625 -0.234375 C 1.03125 -0.234375 1.132812 -0.253906 1.21875 -0.296875 C 1.3125 -0.347656 1.359375 -0.460938 1.359375 -0.640625 L 1.359375 -3.546875 C 1.222656 -3.378906 1.097656 -3.238281 0.984375 -3.125 C 0.867188 -3.019531 0.753906 -2.96875 0.640625 -2.96875 C 0.554688 -2.96875 0.488281 -2.992188 0.4375 -3.046875 C 0.382812 -3.109375 0.359375 -3.1875 0.359375 -3.28125 C 0.472656 -3.3125 0.59375 -3.351562 0.71875 -3.40625 C 0.84375 -3.46875 0.992188 -3.566406 1.171875 -3.703125 L 1.5625 -4 L 1.921875 -4 L 1.921875 -0.640625 C 1.921875 -0.460938 1.960938 -0.347656 2.046875 -0.296875 C 2.140625 -0.253906 2.25 -0.234375 2.375 -0.234375 L 2.65625 -0.234375 L 2.65625 0 Z "/>
</g>
<g id="glyph-0-1">
<path d="M 0.703125 0.03125 C 0.597656 0.03125 0.507812 0.00390625 0.4375 -0.046875 C 0.375 -0.0976562 0.34375 -0.195312 0.34375 -0.34375 C 0.34375 -0.488281 0.375 -0.585938 0.4375 -0.640625 C 0.507812 -0.691406 0.597656 -0.71875 0.703125 -0.71875 C 0.796875 -0.71875 0.875 -0.691406 0.9375 -0.640625 C 1.007812 -0.585938 1.046875 -0.488281 1.046875 -0.34375 C 1.046875 -0.195312 1.007812 -0.0976562 0.9375 -0.046875 C 0.875 0.00390625 0.796875 0.03125 0.703125 0.03125 Z "/>
</g>
<g id="glyph-0-2">
<path d="M 1.515625 0.0625 C 1.234375 0.0625 1 0.015625 0.8125 -0.078125 C 0.632812 -0.179688 0.492188 -0.3125 0.390625 -0.46875 C 0.296875 -0.625 0.25 -0.800781 0.25 -1 C 0.25 -1.175781 0.285156 -1.320312 0.359375 -1.4375 C 0.441406 -1.5625 0.546875 -1.664062 0.671875 -1.75 C 0.796875 -1.84375 0.9375 -1.929688 1.09375 -2.015625 C 0.882812 -2.128906 0.710938 -2.269531 0.578125 -2.4375 C 0.453125 -2.601562 0.390625 -2.800781 0.390625 -3.03125 C 0.390625 -3.195312 0.425781 -3.359375 0.5 -3.515625 C 0.582031 -3.671875 0.710938 -3.796875 0.890625 -3.890625 C 1.066406 -3.984375 1.296875 -4.03125 1.578125 -4.03125 C 1.929688 -4.03125 2.203125 -3.9375 2.390625 -3.75 C 2.585938 -3.570312 2.6875 -3.347656 2.6875 -3.078125 C 2.6875 -2.828125 2.613281 -2.632812 2.46875 -2.5 C 2.332031 -2.363281 2.15625 -2.238281 1.9375 -2.125 C 2.207031 -2 2.425781 -1.847656 2.59375 -1.671875 C 2.769531 -1.503906 2.859375 -1.300781 2.859375 -1.0625 C 2.859375 -0.707031 2.734375 -0.429688 2.484375 -0.234375 C 2.242188 -0.0351562 1.921875 0.0625 1.515625 0.0625 Z M 1.65625 -2.265625 C 1.863281 -2.367188 2.003906 -2.484375 2.078125 -2.609375 C 2.148438 -2.734375 2.1875 -2.890625 2.1875 -3.078125 C 2.1875 -3.191406 2.164062 -3.300781 2.125 -3.40625 C 2.082031 -3.507812 2.015625 -3.59375 1.921875 -3.65625 C 1.828125 -3.726562 1.703125 -3.765625 1.546875 -3.765625 C 1.335938 -3.765625 1.175781 -3.703125 1.0625 -3.578125 C 0.957031 -3.453125 0.90625 -3.289062 0.90625 -3.09375 C 0.90625 -2.894531 0.96875 -2.734375 1.09375 -2.609375 C 1.21875 -2.492188 1.40625 -2.378906 1.65625 -2.265625 Z M 1.546875 -0.203125 C 1.785156 -0.203125 1.976562 -0.269531 2.125 -0.40625 C 2.269531 -0.550781 2.34375 -0.726562 2.34375 -0.9375 C 2.34375 -1.125 2.269531 -1.285156 2.125 -1.421875 C 1.976562 -1.566406 1.726562 -1.71875 1.375 -1.875 C 1.195312 -1.78125 1.054688 -1.65625 0.953125 -1.5 C 0.847656 -1.351562 0.796875 -1.175781 0.796875 -0.96875 C 0.796875 -0.738281 0.859375 -0.550781 0.984375 -0.40625 C 1.109375 -0.269531 1.296875 -0.203125 1.546875 -0.203125 Z "/>
</g>
</g>
</defs>
<g fill="rgb(100%, 100%, 100%)" fill-opacity="1">
<use xlink:href="#glyph-0-0" x="30" y="25.939453"/>
<use xlink:href="#glyph-0-1" x="33" y="25.939453"/>
<use xlink:href="#glyph-0-0" x="34" y="25.939453"/>
<use xlink:href="#glyph-0-2" x="37" y="25.939453"/>
</g>
</svg>
