<?xml version="1.0" encoding="UTF-8"?>
<svg xmlns="http://www.w3.org/2000/svg" xmlns:xlink="http://www.w3.org/1999/xlink" width="1920" height="1080" viewBox="0 0 1920 1080">
<defs>
<g>
<g id="glyph-0-0">
<path d="M 1.640625 0.0625 C 1.210938 0.0625 0.882812 -0.0195312 0.65625 -0.1875 C 0.425781 -0.363281 0.3125 -0.59375 0.3125 -0.875 C 0.3125 -1.007812 0.351562 -1.117188 0.4375 -1.203125 C 0.53125 -1.285156 0.648438 -1.328125 0.796875 -1.328125 C 0.804688 -1.140625 0.84375 -0.960938 0.90625 -0.796875 C 0.96875 -0.640625 1.0625 -0.507812 1.1875 -0.40625 C 1.320312 -0.3125 1.492188 -0.265625 1.703125 -0.265625 C 1.992188 -0.265625 2.222656 -0.332031 2.390625 -0.46875 C 2.566406 -0.613281 2.65625 -0.820312 2.65625 -1.09375 C 2.65625 -1.257812 2.625 -1.398438 2.5625 -1.515625 C 2.5 -1.628906 2.390625 -1.734375 2.234375 -1.828125 C 2.085938 -1.929688 1.882812 -2.035156 1.625 -2.140625 C 1.207031 -2.304688 0.894531 -2.503906 0.6875 -2.734375 C 0.488281 -2.960938 0.390625 -3.257812 0.390625 -3.625 C 0.390625 -3.875 0.453125 -4.085938 0.578125 -4.265625 C 0.710938 -4.453125 0.890625 -4.59375 1.109375 -4.6875 C 1.328125 -4.78125 1.578125 -4.828125 1.859375 -4.828125 C 2.253906 -4.828125 2.5625 -4.75 2.78125 -4.59375 C 3 -4.445312 3.109375 -4.273438 3.109375 -4.078125 C 3.109375 -3.941406 3.054688 -3.835938 2.953125 -3.765625 C 2.859375 -3.691406 2.734375 -3.65625 2.578125 -3.65625 C 2.578125 -3.789062 2.550781 -3.921875 2.5 -4.046875 C 2.457031 -4.179688 2.378906 -4.289062 2.265625 -4.375 C 2.160156 -4.457031 2.015625 -4.5 1.828125 -4.5 C 1.566406 -4.5 1.363281 -4.425781 1.21875 -4.28125 C 1.082031 -4.144531 1.015625 -3.960938 1.015625 -3.734375 C 1.015625 -3.554688 1.046875 -3.40625 1.109375 -3.28125 C 1.171875 -3.164062 1.273438 -3.054688 1.421875 -2.953125 C 1.578125 -2.859375 1.785156 -2.757812 2.046875 -2.65625 C 2.441406 -2.5 2.75 -2.3125 2.96875 -2.09375 C 3.1875 -1.882812 3.296875 -1.613281 3.296875 -1.28125 C 3.296875 -0.851562 3.144531 -0.519531 2.84375 -0.28125 C 2.550781 -0.0507812 2.148438 0.0625 1.640625 0.0625 Z "/>
</g>
<g id="glyph-0-1">
<path d="M 0.15625 0 L 0.15625 -0.28125 L 0.234375 -0.28125 C 0.378906 -0.28125 0.503906 -0.304688 0.609375 -0.359375 C 0.722656 -0.410156 0.78125 -0.535156 0.78125 -0.734375 L 0.78125 -2.84375 C 0.78125 -3.039062 0.722656 -3.164062 0.609375 -3.21875 C 0.503906 -3.269531 0.378906 -3.296875 0.234375 -3.296875 L 0.21875 -3.296875 L 0.21875 -3.578125 L 1.421875 -3.578125 L 1.421875 -0.765625 C 1.421875 -0.554688 1.472656 -0.421875 1.578125 -0.359375 C 1.679688 -0.304688 1.8125 -0.28125 1.96875 -0.28125 L 2.046875 -0.28125 L 2.046875 0 Z M 0.78125 -4.125 C 0.875 -4.257812 0.972656 -4.421875 1.078125 -4.609375 C 1.191406 -4.796875 1.285156 -4.960938 1.359375 -5.109375 L 2.078125 -5.109375 L 2.078125 -5.046875 C 2.023438 -4.972656 1.9375 -4.867188 1.8125 -4.734375 C 1.695312 -4.609375 1.566406 -4.476562 1.421875 -4.34375 C 1.285156 -4.21875 1.15625 -4.117188 1.03125 -4.046875 L 0.78125 -4.046875 Z "/>
</g>
</g>
</defs>
<g fill="rgb(100%, 100%, 100%)" fill-opacity="1">
<use xlink:href="#glyph-0-0" x="30" y="27.126953"/>
<use xlink:href="#glyph-0-1" x="34" y="27.126953"/>
</g>
</svg>
